<mxfile host="Electron" agent="Mozilla/5.0 (Windows NT 10.0; Win64; x64) AppleWebKit/537.36 (KHTML, like Gecko) draw.io/27.0.2 Chrome/134.0.6998.205 Electron/35.3.0 Safari/537.36" version="27.0.2">
  <diagram name="Страница — 1" id="5qVWjPRBqic77SHRVefx">
    <mxGraphModel dx="6065" dy="1858" grid="1" gridSize="10" guides="1" tooltips="1" connect="1" arrows="1" fold="1" page="1" pageScale="1" pageWidth="3300" pageHeight="4681" math="0" shadow="0">
      <root>
        <mxCell id="0" />
        <mxCell id="1" parent="0" />
        <mxCell id="CS6L13gxBBunohHil6Ba-1" value="Segment Tree" style="swimlane;fontStyle=0;childLayout=stackLayout;horizontal=1;startSize=30;horizontalStack=0;resizeParent=1;resizeParentMax=0;resizeLast=0;collapsible=1;marginBottom=0;whiteSpace=wrap;html=1;fillColor=#d5e8d4;strokeColor=#82b366;" vertex="1" parent="1">
          <mxGeometry x="320" y="80" width="160" height="180" as="geometry" />
        </mxCell>
        <mxCell id="CS6L13gxBBunohHil6Ba-2" value="structure Node" style="text;strokeColor=#6c8ebf;fillColor=#dae8fc;align=left;verticalAlign=middle;spacingLeft=4;spacingRight=4;overflow=hidden;points=[[0,0.5],[1,0.5]];portConstraint=eastwest;rotatable=0;whiteSpace=wrap;html=1;" vertex="1" parent="CS6L13gxBBunohHil6Ba-1">
          <mxGeometry y="30" width="160" height="30" as="geometry" />
        </mxCell>
        <mxCell id="CS6L13gxBBunohHil6Ba-3" value="int n" style="text;strokeColor=#82b366;fillColor=#d5e8d4;align=left;verticalAlign=middle;spacingLeft=4;spacingRight=4;overflow=hidden;points=[[0,0.5],[1,0.5]];portConstraint=eastwest;rotatable=0;whiteSpace=wrap;html=1;" vertex="1" parent="CS6L13gxBBunohHil6Ba-1">
          <mxGeometry y="60" width="160" height="30" as="geometry" />
        </mxCell>
        <mxCell id="CS6L13gxBBunohHil6Ba-4" value="vector &amp;lt;int&amp;gt; data" style="text;strokeColor=#82b366;fillColor=#d5e8d4;align=left;verticalAlign=middle;spacingLeft=4;spacingRight=4;overflow=hidden;points=[[0,0.5],[1,0.5]];portConstraint=eastwest;rotatable=0;whiteSpace=wrap;html=1;" vertex="1" parent="CS6L13gxBBunohHil6Ba-1">
          <mxGeometry y="90" width="160" height="30" as="geometry" />
        </mxCell>
        <mxCell id="CS6L13gxBBunohHil6Ba-5" value="vector &amp;lt;int&amp;gt; tree" style="text;strokeColor=#82b366;fillColor=#d5e8d4;align=left;verticalAlign=middle;spacingLeft=4;spacingRight=4;overflow=hidden;points=[[0,0.5],[1,0.5]];portConstraint=eastwest;rotatable=0;whiteSpace=wrap;html=1;" vertex="1" parent="CS6L13gxBBunohHil6Ba-1">
          <mxGeometry y="120" width="160" height="30" as="geometry" />
        </mxCell>
        <mxCell id="CS6L13gxBBunohHil6Ba-6" value="int tree_size" style="text;strokeColor=#82b366;fillColor=#d5e8d4;align=left;verticalAlign=middle;spacingLeft=4;spacingRight=4;overflow=hidden;points=[[0,0.5],[1,0.5]];portConstraint=eastwest;rotatable=0;whiteSpace=wrap;html=1;" vertex="1" parent="CS6L13gxBBunohHil6Ba-1">
          <mxGeometry y="150" width="160" height="30" as="geometry" />
        </mxCell>
        <mxCell id="CS6L13gxBBunohHil6Ba-12" style="edgeStyle=orthogonalEdgeStyle;rounded=0;orthogonalLoop=1;jettySize=auto;html=1;exitX=0;exitY=0.5;exitDx=0;exitDy=0;entryX=1;entryY=0.25;entryDx=0;entryDy=0;fillColor=#dae8fc;strokeColor=#6c8ebf;" edge="1" parent="1" source="CS6L13gxBBunohHil6Ba-10" target="CS6L13gxBBunohHil6Ba-1">
          <mxGeometry relative="1" as="geometry" />
        </mxCell>
        <mxCell id="CS6L13gxBBunohHil6Ba-22" value="" style="group" vertex="1" connectable="0" parent="1">
          <mxGeometry x="550" y="80" width="130" height="160" as="geometry" />
        </mxCell>
        <mxCell id="CS6L13gxBBunohHil6Ba-15" style="edgeStyle=orthogonalEdgeStyle;rounded=0;orthogonalLoop=1;jettySize=auto;html=1;entryX=0.5;entryY=0;entryDx=0;entryDy=0;fillColor=#dae8fc;strokeColor=#6c8ebf;" edge="1" parent="CS6L13gxBBunohHil6Ba-22" source="CS6L13gxBBunohHil6Ba-8" target="CS6L13gxBBunohHil6Ba-14">
          <mxGeometry relative="1" as="geometry" />
        </mxCell>
        <mxCell id="CS6L13gxBBunohHil6Ba-8" value="Node" style="swimlane;fontStyle=0;childLayout=stackLayout;horizontal=1;startSize=30;horizontalStack=0;resizeParent=1;resizeParentMax=0;resizeLast=0;collapsible=1;marginBottom=0;whiteSpace=wrap;html=1;fillColor=#dae8fc;strokeColor=#6c8ebf;" vertex="1" parent="CS6L13gxBBunohHil6Ba-22">
          <mxGeometry width="130" height="98.57142857142856" as="geometry" />
        </mxCell>
        <mxCell id="CS6L13gxBBunohHil6Ba-9" value="int sum" style="text;strokeColor=#6c8ebf;fillColor=#dae8fc;align=left;verticalAlign=middle;spacingLeft=4;spacingRight=4;overflow=hidden;points=[[0,0.5],[1,0.5]];portConstraint=eastwest;rotatable=0;whiteSpace=wrap;html=1;" vertex="1" parent="CS6L13gxBBunohHil6Ba-8">
          <mxGeometry y="30" width="130" height="22.857142857142854" as="geometry" />
        </mxCell>
        <mxCell id="CS6L13gxBBunohHil6Ba-10" value="int max" style="text;strokeColor=#6c8ebf;fillColor=#dae8fc;align=left;verticalAlign=middle;spacingLeft=4;spacingRight=4;overflow=hidden;points=[[0,0.5],[1,0.5]];portConstraint=eastwest;rotatable=0;whiteSpace=wrap;html=1;" vertex="1" parent="CS6L13gxBBunohHil6Ba-8">
          <mxGeometry y="52.857142857142854" width="130" height="22.857142857142854" as="geometry" />
        </mxCell>
        <mxCell id="CS6L13gxBBunohHil6Ba-11" value="int min" style="text;strokeColor=#6c8ebf;fillColor=#dae8fc;align=left;verticalAlign=middle;spacingLeft=4;spacingRight=4;overflow=hidden;points=[[0,0.5],[1,0.5]];portConstraint=eastwest;rotatable=0;whiteSpace=wrap;html=1;" vertex="1" parent="CS6L13gxBBunohHil6Ba-8">
          <mxGeometry y="75.71428571428571" width="130" height="22.857142857142854" as="geometry" />
        </mxCell>
        <mxCell id="CS6L13gxBBunohHil6Ba-14" value="combine()" style="shape=process;whiteSpace=wrap;html=1;backgroundOutline=1;fillColor=#dae8fc;strokeColor=#6c8ebf;" vertex="1" parent="CS6L13gxBBunohHil6Ba-22">
          <mxGeometry x="32.5" y="114.28571428571428" width="65" height="45.71428571428571" as="geometry" />
        </mxCell>
        <mxCell id="CS6L13gxBBunohHil6Ba-26" value="" style="group" vertex="1" connectable="0" parent="1">
          <mxGeometry x="-60" y="300" width="800" height="60" as="geometry" />
        </mxCell>
        <mxCell id="CS6L13gxBBunohHil6Ba-13" value="&lt;font style=&quot;font-size: 9px;&quot;&gt;segmentTree&lt;/font&gt;" style="shape=process;whiteSpace=wrap;html=1;backgroundOutline=1;fillColor=#d5e8d4;strokeColor=#82b366;" vertex="1" parent="CS6L13gxBBunohHil6Ba-26">
          <mxGeometry x="360" width="80" height="60" as="geometry" />
        </mxCell>
        <mxCell id="CS6L13gxBBunohHil6Ba-16" value="build" style="shape=process;whiteSpace=wrap;html=1;backgroundOutline=1;fillColor=#d5e8d4;strokeColor=#82b366;" vertex="1" parent="CS6L13gxBBunohHil6Ba-26">
          <mxGeometry x="480" width="80" height="60" as="geometry" />
        </mxCell>
        <mxCell id="CS6L13gxBBunohHil6Ba-17" value="&lt;font style=&quot;font-size: 9px;&quot;&gt;querySum&lt;/font&gt;" style="shape=process;whiteSpace=wrap;html=1;backgroundOutline=1;fillColor=#d5e8d4;strokeColor=#82b366;" vertex="1" parent="CS6L13gxBBunohHil6Ba-26">
          <mxGeometry x="240" width="80" height="60" as="geometry" />
        </mxCell>
        <mxCell id="CS6L13gxBBunohHil6Ba-18" value="&lt;font style=&quot;font-size: 9px;&quot;&gt;queryMin&lt;/font&gt;" style="shape=process;whiteSpace=wrap;html=1;backgroundOutline=1;fillColor=#d5e8d4;strokeColor=#82b366;" vertex="1" parent="CS6L13gxBBunohHil6Ba-26">
          <mxGeometry x="120" width="80" height="60" as="geometry" />
        </mxCell>
        <mxCell id="CS6L13gxBBunohHil6Ba-23" value="&lt;font style=&quot;font-size: 9px;&quot;&gt;queryMax&lt;/font&gt;" style="shape=process;whiteSpace=wrap;html=1;backgroundOutline=1;fillColor=#d5e8d4;strokeColor=#82b366;" vertex="1" parent="CS6L13gxBBunohHil6Ba-26">
          <mxGeometry width="80" height="60" as="geometry" />
        </mxCell>
        <mxCell id="CS6L13gxBBunohHil6Ba-24" value="&lt;font style=&quot;font-size: 9px;&quot;&gt;update&lt;/font&gt;" style="shape=process;whiteSpace=wrap;html=1;backgroundOutline=1;fillColor=#d5e8d4;strokeColor=#82b366;" vertex="1" parent="CS6L13gxBBunohHil6Ba-26">
          <mxGeometry x="720" width="80" height="60" as="geometry" />
        </mxCell>
        <mxCell id="CS6L13gxBBunohHil6Ba-25" value="&lt;font style=&quot;font-size: 9px;&quot;&gt;printTree&lt;/font&gt;" style="shape=process;whiteSpace=wrap;html=1;backgroundOutline=1;fillColor=#d5e8d4;strokeColor=#82b366;" vertex="1" parent="CS6L13gxBBunohHil6Ba-26">
          <mxGeometry x="600" width="80" height="60" as="geometry" />
        </mxCell>
        <mxCell id="CS6L13gxBBunohHil6Ba-35" value="" style="endArrow=classic;html=1;rounded=0;entryX=0.5;entryY=0;entryDx=0;entryDy=0;" edge="1" parent="CS6L13gxBBunohHil6Ba-26">
          <mxGeometry width="50" height="50" relative="1" as="geometry">
            <mxPoint x="39.789999999999964" y="-20" as="sourcePoint" />
            <mxPoint x="39.789999999999964" as="targetPoint" />
          </mxGeometry>
        </mxCell>
        <mxCell id="CS6L13gxBBunohHil6Ba-27" value="" style="endArrow=none;html=1;rounded=0;" edge="1" parent="1">
          <mxGeometry width="50" height="50" relative="1" as="geometry">
            <mxPoint x="400" y="280" as="sourcePoint" />
            <mxPoint x="400" y="260" as="targetPoint" />
          </mxGeometry>
        </mxCell>
        <mxCell id="CS6L13gxBBunohHil6Ba-28" value="" style="endArrow=none;html=1;rounded=0;" edge="1" parent="1">
          <mxGeometry width="50" height="50" relative="1" as="geometry">
            <mxPoint x="-19.25925925925926" y="280" as="sourcePoint" />
            <mxPoint x="700.7407407407408" y="280" as="targetPoint" />
          </mxGeometry>
        </mxCell>
        <mxCell id="CS6L13gxBBunohHil6Ba-29" value="" style="endArrow=classic;html=1;rounded=0;entryX=0.5;entryY=0;entryDx=0;entryDy=0;" edge="1" parent="1" target="CS6L13gxBBunohHil6Ba-24">
          <mxGeometry width="50" height="50" relative="1" as="geometry">
            <mxPoint x="700" y="280" as="sourcePoint" />
            <mxPoint x="750" y="230" as="targetPoint" />
          </mxGeometry>
        </mxCell>
        <mxCell id="CS6L13gxBBunohHil6Ba-30" value="" style="endArrow=classic;html=1;rounded=0;entryX=0.5;entryY=0;entryDx=0;entryDy=0;" edge="1" parent="1">
          <mxGeometry width="50" height="50" relative="1" as="geometry">
            <mxPoint x="580" y="280" as="sourcePoint" />
            <mxPoint x="580" y="300" as="targetPoint" />
          </mxGeometry>
        </mxCell>
        <mxCell id="CS6L13gxBBunohHil6Ba-31" value="" style="endArrow=classic;html=1;rounded=0;entryX=0.5;entryY=0;entryDx=0;entryDy=0;" edge="1" parent="1">
          <mxGeometry width="50" height="50" relative="1" as="geometry">
            <mxPoint x="460" y="280" as="sourcePoint" />
            <mxPoint x="460" y="300" as="targetPoint" />
          </mxGeometry>
        </mxCell>
        <mxCell id="CS6L13gxBBunohHil6Ba-32" value="" style="endArrow=classic;html=1;rounded=0;entryX=0.5;entryY=0;entryDx=0;entryDy=0;" edge="1" parent="1">
          <mxGeometry width="50" height="50" relative="1" as="geometry">
            <mxPoint x="339.78999999999996" y="280" as="sourcePoint" />
            <mxPoint x="339.78999999999996" y="300" as="targetPoint" />
          </mxGeometry>
        </mxCell>
        <mxCell id="CS6L13gxBBunohHil6Ba-33" value="" style="endArrow=classic;html=1;rounded=0;entryX=0.5;entryY=0;entryDx=0;entryDy=0;" edge="1" parent="1">
          <mxGeometry width="50" height="50" relative="1" as="geometry">
            <mxPoint x="219.99999999999997" y="280" as="sourcePoint" />
            <mxPoint x="219.99999999999997" y="300" as="targetPoint" />
          </mxGeometry>
        </mxCell>
        <mxCell id="CS6L13gxBBunohHil6Ba-34" value="" style="endArrow=classic;html=1;rounded=0;entryX=0.5;entryY=0;entryDx=0;entryDy=0;" edge="1" parent="1">
          <mxGeometry width="50" height="50" relative="1" as="geometry">
            <mxPoint x="99.99999999999997" y="280" as="sourcePoint" />
            <mxPoint x="99.99999999999997" y="300" as="targetPoint" />
          </mxGeometry>
        </mxCell>
      </root>
    </mxGraphModel>
  </diagram>
</mxfile>
